<svg width="356" height="320" viewBox="0 0 356 320" fill="none" xmlns="http://www.w3.org/2000/svg">
<path d="M105.7 137.7C105.7 135.167 105.5 132.367 105.1 129.3C104.7 126.167 104.033 123.067 103.1 120C102.167 116.933 100.9 114.133 99.3 111.6C97.7 109 95.7 106.933 93.3 105.4C90.9667 103.8 88.1667 103 84.9 103C81.6333 103 78.8 103.8 76.4 105.4C74 106.933 71.9667 109 70.3 111.6C68.7 114.133 67.4 116.933 66.4 120C65.4 123.067 64.6667 126.167 64.2 129.3C63.8 132.367 63.6 135.167 63.6 137.7C63.6 140.233 63.8333 143.033 64.3 146.1C64.7667 149.1 65.5 152.133 66.5 155.2C67.5 158.2 68.8 160.967 70.4 163.5C72.0667 165.967 74.1 167.967 76.5 169.5C78.9 170.967 81.7 171.7 84.9 171.7C88.2333 171.7 91.0667 170.967 93.4 169.5C95.8 167.967 97.7667 165.967 99.3 163.5C100.9 161.033 102.167 158.3 103.1 155.3C104.033 152.3 104.7 149.267 105.1 146.2C105.5 143.133 105.7 140.3 105.7 137.7ZM120.2 137.5C120.2 145.033 118.867 151.6 116.2 157.2C113.533 162.8 109.567 167.133 104.3 170.2C99.1 173.267 92.6333 174.8 84.9 174.8C77.3 174.8 70.8667 173.267 65.6 170.2C60.3333 167.067 56.3333 162.733 53.6 157.2C50.8667 151.6 49.5 145.1 49.5 137.7C49.5 132.5 50.3 127.633 51.9 123.1C53.5667 118.5 55.9333 114.467 59 111C62.1333 107.533 65.8667 104.833 70.2 102.9C74.6 100.967 79.5 100 84.9 100C92.5 100 98.9333 101.6 104.2 104.8C109.467 107.933 113.433 112.333 116.1 118C118.833 123.6 120.2 130.1 120.2 137.5ZM223.981 139.5C223.981 141.1 223.881 142.7 223.681 144.3C223.481 145.9 223.281 147.55 223.081 149.25C222.681 152.75 222.231 156.25 221.731 159.75C221.231 163.25 220.831 166.75 220.531 170.25C220.531 171.25 220.331 172.1 219.931 172.8C219.431 173.5 218.681 173.9 217.681 174C216.681 174.2 215.781 174.3 214.981 174.3C213.781 174.3 212.581 174.25 211.381 174.15C210.181 174.15 208.931 174.15 207.631 174.15C201.331 174.05 195.031 174 188.731 174C182.431 174 176.131 174 169.831 174H152.731C150.531 174 148.331 174 146.131 174C144.031 174 141.881 174.05 139.681 174.15C138.581 174.25 137.481 174.3 136.381 174.3C135.281 174.4 134.181 174.45 133.081 174.45C132.181 174.45 131.381 174.2 130.681 173.7C130.081 173.2 129.781 172.5 129.781 171.6C129.781 170.6 130.081 169.85 130.681 169.35C131.381 168.85 132.131 168.6 132.931 168.6C133.731 168.6 134.531 168.65 135.331 168.75C136.231 168.85 137.081 168.9 137.881 168.9C139.481 168.9 140.731 168.7 141.631 168.3C142.531 167.8 142.981 166.65 142.981 164.85C142.981 149.35 142.981 133.85 142.981 118.35C142.981 102.75 142.931 87.25 142.831 71.85C142.831 70.65 142.581 69.9 142.081 69.6C141.681 69.2 140.931 69 139.831 69C138.731 69 137.581 69.05 136.381 69.15C135.281 69.25 134.131 69.3 132.931 69.3C132.231 69.3 131.581 69.05 130.981 68.55C130.381 68.05 130.081 67.4 130.081 66.6C130.081 64.7 131.081 63.75 133.081 63.75C134.181 63.75 135.331 63.8 136.531 63.9C137.731 64 138.931 64.1 140.131 64.2C142.531 64.3 144.881 64.4 147.181 64.5C149.581 64.5 151.981 64.5 154.381 64.5C156.381 64.5 158.331 64.5 160.231 64.5C162.231 64.5 164.181 64.45 166.081 64.35C167.481 64.25 168.831 64.15 170.131 64.05C171.431 63.85 172.731 63.75 174.031 63.75C175.631 63.75 176.431 64.6 176.431 66.3C176.431 67 176.231 67.7 175.831 68.4C175.431 69 174.831 69.3 174.031 69.3C172.731 69.3 171.431 69.25 170.131 69.15C168.931 69.05 167.631 69 166.231 69C165.131 69 164.431 69.3 164.131 69.9C163.931 70.4 163.831 71.15 163.831 72.15C163.831 75.85 163.781 79.5 163.681 83.1C163.681 86.7 163.681 90.35 163.681 94.05C163.681 105.65 163.681 117.3 163.681 129C163.781 140.7 163.831 152.35 163.831 163.95C163.831 164.95 164.081 165.9 164.581 166.8C165.081 167.7 165.831 168.3 166.831 168.6C168.131 168.9 169.481 169.05 170.881 169.05C172.281 169.05 173.631 169.05 174.931 169.05C182.431 169.05 188.931 168.3 194.431 166.8C199.931 165.3 204.581 162.55 208.381 158.55C212.281 154.45 215.481 148.55 217.981 140.85C218.281 139.95 218.681 139.15 219.181 138.45C219.681 137.65 220.431 137.25 221.431 137.25C222.031 137.25 222.581 137.45 223.081 137.85C223.681 138.25 223.981 138.8 223.981 139.5ZM289.82 136.6C289.82 132.8 289.386 129 288.52 125.2C287.72 121.4 286.386 117.933 284.52 114.8C282.653 111.667 280.186 109.167 277.12 107.3C274.053 105.367 270.286 104.4 265.82 104.4C261.286 104.4 256.82 104.5 252.42 104.7V165.9C252.42 167.633 252.686 168.867 253.22 169.6C253.753 170.333 254.953 170.7 256.82 170.7C259.086 170.7 261.453 170.6 263.92 170.4C266.453 170.2 268.886 169.767 271.22 169.1C273.62 168.367 275.72 167.3 277.52 165.9C281.853 162.367 284.986 157.967 286.92 152.7C288.853 147.433 289.82 142.067 289.82 136.6ZM304.32 135.2C304.32 139.467 303.686 143.667 302.42 147.8C301.153 151.933 299.286 155.767 296.82 159.3C294.42 162.767 291.42 165.7 287.82 168.1C285.486 169.633 282.753 170.9 279.62 171.9C276.486 172.833 273.286 173.5 270.02 173.9C266.82 174.3 263.82 174.5 261.02 174.5C258.686 174.5 256.353 174.4 254.02 174.2C251.753 174.067 249.453 174 247.12 174C245.453 174 243.753 174 242.02 174C240.353 174.067 238.653 174.167 236.92 174.3C236.253 174.367 235.62 174.4 235.02 174.4C234.42 174.467 233.82 174.5 233.22 174.5C232.02 174.5 231.42 173.967 231.42 172.9C231.42 172.233 231.72 171.8 232.32 171.6C232.92 171.4 233.586 171.267 234.32 171.2C235.053 171.067 235.62 170.933 236.02 170.8C237.153 170.267 237.886 169.433 238.22 168.3C238.553 167.167 238.72 166.067 238.72 165C238.72 158.933 238.72 152.9 238.72 146.9C238.72 140.9 238.72 134.9 238.72 128.9C238.72 125.433 238.72 122 238.72 118.6C238.786 115.133 238.72 111.7 238.52 108.3C238.52 108.167 238.486 107.9 238.42 107.5C238.42 107.033 238.42 106.767 238.42 106.7C238.22 105.9 237.686 105.367 236.82 105.1C235.953 104.833 235.02 104.733 234.02 104.8C233.02 104.8 232.186 104.8 231.52 104.8C230.986 104.8 230.486 104.7 230.02 104.5C229.553 104.233 229.32 103.767 229.32 103.1C229.32 101.833 229.953 101.2 231.22 101.2C232.886 101.2 234.52 101.267 236.12 101.4C237.786 101.467 239.453 101.5 241.12 101.5C245.853 101.5 250.586 101.333 255.32 101C260.12 100.6 264.886 100.4 269.62 100.4C276.82 100.4 283.02 101.8 288.22 104.6C293.42 107.4 297.386 111.4 300.12 116.6C302.92 121.8 304.32 128 304.32 135.2Z" fill="#383838"/>
<path d="M43.5 229.4C43.5 228 43.4667 226.333 43.4 224.4C43.3333 222.4 43.1333 220.367 42.8 218.3C42.5333 216.167 42.0333 214.2 41.3 212.4C40.6333 210.533 39.6667 209.033 38.4 207.9C37.1333 206.767 35.5 206.2 33.5 206.2C30.8333 206.2 28.6333 206.967 26.9 208.5C25.2333 210.033 23.8667 211.967 22.8 214.3V240.4C22.8 242.067 23.1 243.9 23.7 245.9C24.3667 247.833 25.3667 249.5 26.7 250.9C28.0333 252.233 29.7 252.9 31.7 252.9C34.6333 252.9 36.9 252.1 38.5 250.5C40.1667 248.833 41.3333 246.767 42 244.3C42.7333 241.833 43.1667 239.267 43.3 236.6C43.4333 233.867 43.5 231.467 43.5 229.4ZM57.2 228C57.2 233.4 56.3 238.2 54.5 242.4C52.7 246.533 49.9333 249.8 46.2 252.2C42.4667 254.533 37.7333 255.7 32 255.7C30.5333 255.7 28.9 255.367 27.1 254.7C25.3667 253.967 23.9 253.233 22.7 252.5C22.7 253.967 22.6667 255.433 22.6 256.9C22.6 258.433 22.6333 259.967 22.7 261.5V269.6C22.7 270.2 22.8 270.8 23 271.4C23.2667 272 23.7667 272.3 24.5 272.3C25.0333 272.3 25.5667 272.267 26.1 272.2C26.7 272.2 27.2667 272.2 27.8 272.2C28.7333 272.2 29.2 272.7 29.2 273.7C29.2 274.767 28.7 275.3 27.7 275.3C25.8333 275.3 23.9667 275.233 22.1 275.1C20.2333 274.967 18.3333 274.9 16.4 274.9C14.4667 274.9 12.5 274.967 10.5 275.1C8.5 275.233 6.53333 275.3 4.6 275.3C4.13333 275.3 3.8 275.1 3.6 274.7C3.4 274.367 3.3 274.033 3.3 273.7C3.3 272.7 3.8 272.2 4.8 272.2C5.33333 272.2 5.86667 272.2 6.4 272.2C6.93333 272.267 7.43333 272.3 7.9 272.3C8.63333 272.3 9.16667 272.033 9.5 271.5C9.83333 271.033 10 270.467 10 269.8C10 260.067 10 250.333 10 240.6C10.0667 230.8 10.1 221.033 10.1 211.3C10.1 210.567 10 209.767 9.8 208.9C9.6 208.033 9 207.6 8 207.6C7.33333 207.6 6.66667 207.633 6 207.7C5.4 207.767 4.76667 207.8 4.1 207.8C3.7 207.8 3.23333 207.733 2.7 207.6C2.23333 207.4 2 207.033 2 206.5C2 206.1 2.13333 205.8 2.4 205.6C2.66667 205.4 2.96667 205.267 3.3 205.2C4.03333 204.933 4.8 204.767 5.6 204.7C6.4 204.633 7.16667 204.533 7.9 204.4C11.3 203.8 14.5667 203 17.7 202C17.9667 201.867 18.2333 201.767 18.5 201.7C18.7667 201.567 19.0333 201.5 19.3 201.5C19.7667 201.5 20.1667 201.9 20.5 202.7C20.9 203.5 21.2 204.367 21.4 205.3C21.6667 206.233 21.8667 206.9 22 207.3C22.9333 206.767 24.2667 206.167 26 205.5C27.7333 204.767 29.4667 204.133 31.2 203.6C33 203 34.4 202.7 35.4 202.7C38.8 202.7 41.8333 203.433 44.5 204.9C47.1667 206.367 49.4333 208.333 51.3 210.8C53.2333 213.2 54.7 215.9 55.7 218.9C56.7 221.9 57.2 224.933 57.2 228ZM122.34 254.6C122.34 255.8 121.773 256.4 120.64 256.4C119.707 256.4 118.74 256.333 117.74 256.2C116.807 256.133 115.873 256.067 114.94 256C113.607 255.933 112.24 255.933 110.84 256C109.507 256 108.173 256 106.84 256C105.24 256 103.64 256.067 102.04 256.2C100.507 256.4 98.9732 256.5 97.4398 256.5C97.0398 256.5 96.6398 256.333 96.2398 256C95.9065 255.6 95.7398 255.233 95.7398 254.9C95.7398 253.767 96.3065 253.2 97.4398 253.2C98.1065 253.2 98.7398 253.233 99.3398 253.3C99.9398 253.367 100.573 253.4 101.24 253.4C102.24 253.4 102.74 252.867 102.74 251.8C102.74 246.667 102.74 241.567 102.74 236.5C102.807 231.367 102.84 226.267 102.84 221.2C102.84 219.4 102.773 217.433 102.64 215.3C102.507 213.1 102.107 211.167 101.44 209.5C100.84 207.967 100.073 206.933 99.1398 206.4C98.2065 205.867 96.9398 205.6 95.3398 205.6C93.8732 205.6 92.3398 206.133 90.7398 207.2C89.2065 208.267 87.8398 209.567 86.6398 211.1C85.4398 212.567 84.5398 213.933 83.9398 215.2V252.2C83.9398 252.933 84.4065 253.3 85.3398 253.3C86.0065 253.3 86.6398 253.267 87.2398 253.2C87.8398 253.067 88.4732 253 89.1398 253C89.4732 253 89.8065 253.2 90.1398 253.6C90.5398 253.933 90.7398 254.267 90.7398 254.6C90.7398 255.8 90.1732 256.4 89.0398 256.4C88.1065 256.4 87.1398 256.333 86.1398 256.2C85.2065 256.133 84.2732 256.1 83.3398 256.1C82.6732 256.1 82.0065 256.1 81.3398 256.1C80.6732 256.1 79.9732 256.1 79.2398 256.1H73.9398C72.6732 256.1 71.4065 256.167 70.1398 256.3C68.8732 256.433 67.6065 256.5 66.3398 256.5C65.2732 256.5 64.7398 255.9 64.7398 254.7C64.7398 253.633 65.3065 253.1 66.4398 253.1C67.1065 253.1 67.7398 253.133 68.3398 253.2C68.9398 253.267 69.5732 253.3 70.2398 253.3C71.0398 253.3 71.4398 252.933 71.4398 252.2V188.5C71.4398 187.833 71.3398 187.033 71.1398 186.1C71.0065 185.1 70.4732 184.6 69.5398 184.6C68.6732 184.6 67.7732 184.667 66.8398 184.8C65.9732 184.933 65.1065 185 64.2398 185C63.9065 185 63.6065 184.833 63.3398 184.5C63.0732 184.167 62.9398 183.833 62.9398 183.5C62.9398 182.833 63.3732 182.433 64.2398 182.3C66.9732 181.7 69.7065 181.233 72.4398 180.9C75.2398 180.5 77.9732 179.9 80.6398 179.1C81.1732 178.9 81.7065 178.8 82.2398 178.8C83.1732 178.8 83.6398 179.233 83.6398 180.1V209.1C85.5732 207.3 87.8398 205.7 90.4398 204.3C93.0398 202.9 95.6732 202.2 98.3398 202.2C102.873 202.2 106.373 202.767 108.84 203.9C111.373 205.033 113.14 206.9 114.14 209.5C115.207 212.1 115.74 215.633 115.74 220.1V251.8C115.74 252.8 116.207 253.3 117.14 253.3C117.74 253.3 118.34 253.267 118.94 253.2C119.54 253.067 120.14 253 120.74 253C121.207 253 121.573 253.167 121.84 253.5C122.173 253.833 122.34 254.2 122.34 254.6ZM168.314 229.7C168.314 227.5 168.147 225 167.814 222.2C167.547 219.333 166.947 216.567 166.014 213.9C165.081 211.233 163.714 209.033 161.914 207.3C160.181 205.5 157.814 204.6 154.814 204.6C152.081 204.6 149.881 205.467 148.214 207.2C146.547 208.933 145.247 211.1 144.314 213.7C143.447 216.3 142.847 219 142.514 221.8C142.181 224.533 142.014 226.9 142.014 228.9C142.014 231.1 142.147 233.633 142.414 236.5C142.747 239.3 143.381 242.033 144.314 244.7C145.247 247.367 146.614 249.567 148.414 251.3C150.214 253.033 152.614 253.9 155.614 253.9C158.414 253.9 160.647 253.067 162.314 251.4C164.047 249.667 165.347 247.533 166.214 245C167.081 242.4 167.647 239.733 167.914 237C168.181 234.2 168.314 231.767 168.314 229.7ZM181.914 230.2C181.914 235.333 180.747 239.9 178.414 243.9C176.081 247.833 172.881 250.933 168.814 253.2C164.814 255.467 160.247 256.6 155.114 256.6C149.981 256.6 145.447 255.4 141.514 253C137.581 250.6 134.481 247.367 132.214 243.3C130.014 239.233 128.914 234.667 128.914 229.6C128.914 224.333 130.014 219.633 132.214 215.5C134.414 211.3 137.514 208 141.514 205.6C145.514 203.133 150.181 201.9 155.514 201.9C161.381 201.9 166.247 203.1 170.114 205.5C174.047 207.833 176.981 211.133 178.914 215.4C180.914 219.6 181.914 224.533 181.914 230.2ZM247.326 254.6C247.326 255.667 246.792 256.2 245.726 256.2C243.792 256.2 241.826 256.133 239.826 256C237.892 255.933 235.959 255.9 234.026 255.9C232.159 255.9 230.259 255.933 228.326 256C226.392 256.133 224.459 256.2 222.526 256.2C222.059 256.2 221.726 256.033 221.526 255.7C221.326 255.3 221.226 254.9 221.226 254.5C221.226 253.5 221.759 253 222.826 253C223.426 253 224.026 253.033 224.626 253.1C225.226 253.1 225.826 253.1 226.426 253.1C227.426 253.1 227.926 252.667 227.926 251.8C227.926 246.2 227.926 240.6 227.926 235C227.992 229.4 228.026 223.8 228.026 218.2C228.026 216.4 227.859 214.533 227.526 212.6C227.259 210.667 226.592 209.033 225.526 207.7C224.526 206.367 222.859 205.7 220.526 205.7C219.059 205.7 217.526 206.233 215.926 207.3C214.392 208.367 212.992 209.633 211.726 211.1C210.526 212.567 209.659 213.933 209.126 215.2V250.6C209.126 251.2 209.192 251.767 209.326 252.3C209.526 252.833 209.992 253.1 210.726 253.1C211.259 253.1 211.792 253.1 212.326 253.1C212.926 253.033 213.492 253 214.026 253C214.359 253 214.692 253.133 215.026 253.4C215.359 253.667 215.526 253.967 215.526 254.3C215.526 255.567 214.992 256.2 213.926 256.2C212.059 256.2 210.192 256.133 208.326 256C206.526 255.8 204.659 255.7 202.726 255.7C200.726 255.7 198.692 255.8 196.626 256C194.626 256.133 192.592 256.2 190.526 256.2C190.059 256.2 189.726 256.033 189.526 255.7C189.326 255.3 189.226 254.9 189.226 254.5C189.226 253.5 189.759 253 190.826 253C191.426 253 192.026 253.033 192.626 253.1C193.226 253.1 193.859 253.1 194.526 253.1C195.459 253.1 195.992 252.9 196.126 252.5C196.259 252.1 196.326 251.467 196.326 250.6V236.1C196.326 232.033 196.326 227.967 196.326 223.9C196.326 219.833 196.326 215.767 196.326 211.7C196.326 210.967 196.226 210.167 196.026 209.3C195.826 208.367 195.226 207.9 194.226 207.9C193.559 207.9 192.892 207.933 192.226 208C191.626 208.067 190.992 208.1 190.326 208.1C189.926 208.1 189.459 208.033 188.926 207.9C188.459 207.7 188.226 207.333 188.226 206.8C188.226 206.4 188.359 206.1 188.626 205.9C188.892 205.7 189.192 205.567 189.526 205.5C190.192 205.3 190.892 205.167 191.626 205.1C192.359 205.033 193.059 204.933 193.726 204.8C195.459 204.467 197.159 204.1 198.826 203.7C200.559 203.233 202.259 202.767 203.926 202.3C204.192 202.167 204.459 202.067 204.726 202C204.992 201.867 205.259 201.8 205.526 201.8C206.059 201.8 206.526 202.3 206.926 203.3C207.392 204.3 207.759 205.367 208.026 206.5C208.359 207.633 208.559 208.433 208.626 208.9C210.559 207.167 212.892 205.633 215.626 204.3C218.359 202.9 221.059 202.2 223.726 202.2C228.192 202.2 231.659 202.767 234.126 203.9C236.659 205.033 238.459 206.933 239.526 209.6C240.592 212.2 241.126 215.7 241.126 220.1C241.126 225.3 241.092 230.5 241.026 235.7C240.959 240.9 240.926 246.1 240.926 251.3C240.926 251.967 241.126 252.467 241.526 252.8C241.992 253.067 242.559 253.2 243.226 253.2C243.692 253.2 244.126 253.167 244.526 253.1C244.992 253.033 245.459 253 245.926 253C246.859 253 247.326 253.533 247.326 254.6ZM287.409 220.9C287.409 219.567 287.343 217.967 287.209 216.1C287.076 214.233 286.743 212.433 286.209 210.7C285.743 208.9 284.976 207.4 283.909 206.2C282.843 205 281.376 204.4 279.509 204.4C277.709 204.4 276.109 205 274.709 206.2C273.376 207.333 272.243 208.8 271.309 210.6C270.376 212.333 269.643 214.167 269.109 216.1C268.576 217.967 268.176 219.633 267.909 221.1C269.043 221.1 270.143 221.133 271.209 221.2C272.343 221.2 273.443 221.2 274.509 221.2C278.843 221.2 283.143 221.1 287.409 220.9ZM301.809 243C301.809 243.2 301.743 243.5 301.609 243.9C301.543 244.233 301.443 244.5 301.309 244.7C300.843 245.767 299.976 247 298.709 248.4C297.443 249.733 296.309 250.767 295.309 251.5C290.843 254.9 285.676 256.6 279.809 256.6C274.543 256.6 269.976 255.5 266.109 253.3C262.243 251.033 259.276 247.9 257.209 243.9C255.143 239.9 254.109 235.3 254.109 230.1C254.109 224.9 255.109 220.2 257.109 216C259.176 211.733 262.109 208.367 265.909 205.9C269.776 203.367 274.409 202.1 279.809 202.1C286.009 202.1 290.976 203.8 294.709 207.2C298.443 210.6 300.309 215.467 300.309 221.8C300.309 223.533 299.509 224.4 297.909 224.4C294.976 224.4 292.043 224.367 289.109 224.3C286.176 224.233 283.243 224.2 280.309 224.2C278.176 224.2 276.043 224.2 273.909 224.2C271.776 224.2 269.643 224.233 267.509 224.3C267.309 226.3 267.209 228.333 267.209 230.4C267.209 232.267 267.443 234.467 267.909 237C268.443 239.533 269.209 242 270.209 244.4C271.276 246.8 272.643 248.8 274.309 250.4C275.976 251.933 278.009 252.7 280.409 252.7C283.409 252.7 285.909 252.267 287.909 251.4C289.976 250.533 291.809 249.3 293.409 247.7C295.009 246.1 296.643 244.2 298.309 242C298.509 241.733 298.709 241.533 298.909 241.4C299.176 241.2 299.476 241.1 299.809 241.1C300.276 241.1 300.709 241.3 301.109 241.7C301.576 242.033 301.809 242.467 301.809 243ZM346.302 241.3C346.302 244.433 345.635 247 344.302 249C342.968 250.933 341.202 252.433 339.002 253.5C336.802 254.567 334.402 255.3 331.802 255.7C329.268 256.1 326.735 256.3 324.202 256.3C322.535 256.3 320.902 256.133 319.302 255.8C317.702 255.467 316.102 255.1 314.502 254.7C313.835 254.567 313.135 254.433 312.402 254.3C311.668 254.1 310.935 254 310.202 254C309.935 253.067 309.535 251.7 309.002 249.9C308.535 248.033 308.068 246.233 307.602 244.5C307.202 242.7 307.002 241.433 307.002 240.7C307.002 239.967 307.235 239.5 307.702 239.3C308.168 239.1 308.668 239 309.202 239C310.002 239 310.602 239.3 311.002 239.9C312.002 241.3 312.802 242.767 313.402 244.3C314.002 245.833 314.935 247.267 316.202 248.6C317.135 249.6 318.468 250.633 320.202 251.7C322.002 252.7 323.602 253.2 325.002 253.2C328.002 253.2 330.235 252.5 331.702 251.1C333.235 249.7 334.002 247.467 334.002 244.4C334.002 242.333 333.368 240.6 332.102 239.2C330.835 237.8 329.202 236.533 327.202 235.4C325.268 234.267 323.202 233.167 321.002 232.1C318.802 230.967 316.702 229.733 314.702 228.4C312.768 227.067 311.168 225.467 309.902 223.6C308.635 221.667 308.002 219.333 308.002 216.6C308.002 213.2 308.935 210.433 310.802 208.3C312.668 206.167 315.035 204.6 317.902 203.6C320.835 202.6 323.768 202.1 326.702 202.1C328.035 202.1 329.335 202.2 330.602 202.4C331.868 202.6 333.135 202.967 334.402 203.5C335.002 203.7 335.802 203.967 336.802 204.3C337.868 204.567 338.702 204.7 339.302 204.7C340.168 204.7 341.002 204.6 341.802 204.4C341.935 206.267 342.135 208.133 342.402 210C342.735 211.867 342.935 213.733 343.002 215.6V215.9C343.068 216.567 342.868 217.133 342.402 217.6C342.002 218 341.502 218.2 340.902 218.2C340.235 218.2 339.735 218.067 339.402 217.8C339.135 217.533 338.868 217.133 338.602 216.6C337.735 214.667 336.868 212.833 336.002 211.1C335.202 209.3 334.102 207.833 332.702 206.7C331.368 205.567 329.435 205 326.902 205C324.235 205 322.268 206.033 321.002 208.1C319.735 210.167 319.102 212.367 319.102 214.7C319.102 216.567 319.802 218.167 321.202 219.5C322.602 220.833 324.035 221.9 325.502 222.7C327.302 223.633 329.368 224.667 331.702 225.8C334.102 226.933 336.402 228.233 338.602 229.7C340.802 231.167 342.635 232.867 344.102 234.8C345.568 236.667 346.302 238.833 346.302 241.3Z" fill="#F6C018"/>
</svg>
